<svg width="40" height="40" viewBox="0 0 40 40" fill="none" xmlns="http://www.w3.org/2000/svg">
<path d="M13.3327 36.6667H26.6661C33.3661 36.6667 34.5661 33.9833 34.9161 30.7167L36.1661 17.3833C36.6161 13.3167 35.4494 10 28.3327 10H11.6661C4.54939 10 3.38272 13.3167 3.83272 17.3833L5.08272 30.7167C5.43272 33.9833 6.63272 36.6667 13.3327 36.6667Z" stroke="#C4E300" stroke-width="2.5" stroke-miterlimit="10" stroke-linecap="round" stroke-linejoin="round"/>
<path d="M13.333 10V8.66671C13.333 5.71671 13.333 3.33337 18.6663 3.33337H21.333C26.6663 3.33337 26.6663 5.71671 26.6663 8.66671V10" stroke="#C4E300" stroke-width="2.5" stroke-miterlimit="10" stroke-linecap="round" stroke-linejoin="round"/>
<path d="M23.3337 21.6667V23.3333C23.3337 23.35 23.3337 23.35 23.3337 23.3667C23.3337 25.1833 23.317 26.6667 20.0003 26.6667C16.7003 26.6667 16.667 25.2 16.667 23.3833V21.6667C16.667 20 16.667 20 18.3337 20H21.667C23.3337 20 23.3337 20 23.3337 21.6667Z" stroke="#C4E300" stroke-width="2.5" stroke-miterlimit="10" stroke-linecap="round" stroke-linejoin="round"/>
<path d="M36.083 18.3334C32.233 21.1334 27.833 22.8 23.333 23.3667" stroke="#C4E300" stroke-width="2.5" stroke-miterlimit="10" stroke-linecap="round" stroke-linejoin="round"/>
<path d="M4.36719 18.7833C8.11719 21.35 12.3505 22.9 16.6672 23.3833" stroke="#C4E300" stroke-width="2.5" stroke-miterlimit="10" stroke-linecap="round" stroke-linejoin="round"/>
</svg>
