<svg width="25" height="24" viewBox="0 0 25 24" fill="none" xmlns="http://www.w3.org/2000/svg">
<path d="M10.55 2.53001L4.53002 6.46001C2.60002 7.72001 2.60002 10.54 4.53002 11.8L10.55 15.73C11.63 16.44 13.41 16.44 14.49 15.73L20.48 11.8C22.4 10.54 22.4 7.73001 20.48 6.47001L14.49 2.54001C13.41 1.82001 11.63 1.82001 10.55 2.53001Z" stroke="#121212" stroke-width="1.5" stroke-linecap="round" stroke-linejoin="round"/>
<path d="M6.13012 13.08L6.12012 17.77C6.12012 19.04 7.10012 20.4 8.30012 20.8L11.4901 21.86C12.0401 22.04 12.9501 22.04 13.5101 21.86L16.7001 20.8C17.9001 20.4 18.8801 19.04 18.8801 17.77V13.13" stroke="#121212" stroke-width="1.5" stroke-linecap="round" stroke-linejoin="round"/>
<path d="M21.8999 15V9" stroke="#121212" stroke-width="1.5" stroke-linecap="round" stroke-linejoin="round"/>
</svg>
