<svg width="40" height="41" viewBox="0 0 40 41" fill="none" xmlns="http://www.w3.org/2000/svg">
<path d="M20 4.25C11.0256 4.25 3.75 11.5256 3.75 20.5C3.75 28.1731 9.07 34.6 16.2219 36.3037C15.8519 36.2156 15.485 36.1169 15.125 36.0044V32.2812C15.125 32.2812 14.5156 32.4844 13.7031 32.4844C11.43 32.4844 10.4856 30.4562 10.25 29.4375C10.1069 28.8169 9.73312 28.2288 9.33187 27.8694C8.8525 27.4419 8.62812 27.4406 8.625 27.2944C8.61875 26.9875 9.03625 27 9.23438 27C10.25 27 11.02 28.0806 11.3775 28.6394C12.2631 30.0187 13.2138 30.25 13.7031 30.25C14.3125 30.25 14.8388 30.1587 15.2013 29.9837C15.3688 28.8037 15.8938 27.7525 16.75 27C12.9394 26.2381 10.25 24.0525 10.25 20.5C10.25 18.67 10.9844 16.9881 12.2081 15.63C12.0831 15.2756 11.875 14.5587 11.875 13.3906C11.875 12.6187 11.9287 11.6712 12.2812 10.75C12.2812 10.75 14.5987 10.7663 16.7844 12.8363C17.7931 12.5425 18.8725 12.375 20 12.375C21.1275 12.375 22.2069 12.5425 23.2156 12.8363C25.4013 10.7663 27.7188 10.75 27.7188 10.75C28.0731 11.6712 28.125 12.6187 28.125 13.3906C28.125 14.65 27.9575 15.3844 27.855 15.7013C29.0412 17.0469 29.75 18.7025 29.75 20.5C29.75 24.0525 27.0606 26.2381 23.25 27C24.2675 27.8937 24.875 29.1956 24.875 30.6562V36.0044C24.515 36.1175 24.1487 36.2156 23.7781 36.3037C30.93 34.6 36.25 28.1731 36.25 20.5C36.25 11.5256 28.9744 4.25 20 4.25Z" fill="white"/>
</svg>
