<svg width="40" height="41" viewBox="0 0 40 41" fill="none" xmlns="http://www.w3.org/2000/svg">
<path d="M20.0007 3.83337C15.5804 3.83337 11.3411 5.58932 8.21554 8.71493C5.08993 11.8405 3.33398 16.0798 3.33398 20.5C3.33398 24.9203 5.08993 29.1595 8.21554 32.2852C11.3411 35.4108 15.5804 37.1667 20.0007 37.1667C24.4209 37.1667 28.6602 35.4108 31.7858 32.2852C34.9114 29.1595 36.6673 24.9203 36.6673 20.5C36.6673 16.0798 34.9114 11.8405 31.7858 8.71493C28.6602 5.58932 24.4209 3.83337 20.0007 3.83337Z" fill="#0288D1"/>
<path d="M11.666 16.3333H14.9993V28.8333H11.666V16.3333ZM13.3227 14.6666H13.3043C12.3093 14.6666 11.666 13.925 11.666 12.9991C11.666 12.0533 12.3293 11.3333 13.3418 11.3333C14.356 11.3333 14.9802 12.0533 14.9993 12.9991C14.9993 13.925 14.356 14.6666 13.3227 14.6666ZM29.166 20.9166C29.166 18.385 27.1143 16.3333 24.5827 16.3333C23.031 16.3333 21.6618 17.1066 20.8327 18.2866V16.3333H17.4993V28.8333H20.8327V22.1666C20.8327 20.7858 21.9518 19.6666 23.3327 19.6666C24.7135 19.6666 25.8327 20.7858 25.8327 22.1666V28.8333H29.166C29.166 28.8333 29.166 21.2675 29.166 20.9166Z" fill="white"/>
</svg>
