<svg width="40" height="41" viewBox="0 0 40 41" fill="none" xmlns="http://www.w3.org/2000/svg">
<path d="M20.0002 3.83331C15.5799 3.83331 11.3407 5.58926 8.21505 8.71487C5.08944 11.8405 3.3335 16.0797 3.3335 20.5C3.3335 24.9203 5.08944 29.1595 8.21505 32.2851C11.3407 35.4107 15.5799 37.1666 20.0002 37.1666C24.4204 37.1666 28.6597 35.4107 31.7853 32.2851C34.9109 29.1595 36.6668 24.9203 36.6668 20.5C36.6668 16.0797 34.9109 11.8405 31.7853 8.71487C28.6597 5.58926 24.4204 3.83331 20.0002 3.83331Z" fill="#29B6F6"/>
<path d="M28.2918 13L25.1702 28.9384C25.1702 28.9384 25.036 29.6667 24.1327 29.6667C23.6527 29.6667 23.4052 29.4384 23.4052 29.4384L16.6435 23.8275L13.3352 22.16L9.08933 21.0309C9.08933 21.0309 8.3335 20.8125 8.3335 20.1875C8.3335 19.6667 9.111 19.4184 9.111 19.4184L26.8743 12.3617C26.8735 12.3609 27.4168 12.1659 27.8127 12.1667C28.056 12.1667 28.3335 12.2709 28.3335 12.5834C28.3335 12.7917 28.2918 13 28.2918 13Z" fill="white"/>
<path d="M19.1664 25.921L16.3114 28.7327C16.3114 28.7327 16.1872 28.8285 16.0214 28.8327C15.9639 28.8343 15.9022 28.8252 15.8389 28.7968L16.6422 23.826L19.1664 25.921Z" fill="#B0BEC5"/>
<path d="M24.9143 15.6633C24.7735 15.48 24.5135 15.4466 24.3302 15.5858L13.3335 22.1666C13.3335 22.1666 15.0885 27.0766 15.356 27.9266C15.6243 28.7775 15.8393 28.7975 15.8393 28.7975L16.6427 23.8266L24.836 16.2466C25.0193 16.1075 25.0535 15.8466 24.9143 15.6633Z" fill="#CFD8DC"/>
</svg>
