<svg width="40" height="40" viewBox="0 0 40 40" fill="none" xmlns="http://www.w3.org/2000/svg">
<path d="M32.062 2.92211H26.2566C26.1335 2.48102 25.7291 2.15617 25.2494 2.15617H24.3502V1.54445C24.3502 0.692812 23.6574 0 22.8059 0H17.1942C16.3426 0 15.6497 0.692812 15.6497 1.54445V2.15617H14.7506C14.2709 2.15617 13.8665 2.48109 13.7434 2.92211H7.9379C6.6347 2.92211 5.57446 3.98234 5.57446 5.28562V6.94039C5.57446 7.26398 5.83673 7.52633 6.1604 7.52633C6.48407 7.52633 6.74634 7.26398 6.74634 6.94039V5.28562C6.74634 4.62852 7.28087 4.09398 7.9379 4.09398H13.7042V6.02406H10.332C9.59696 6.02406 8.99892 6.62211 8.99892 7.35719V35.0876C8.99892 35.8227 9.59696 36.4207 10.332 36.4207H29.668C30.4031 36.4207 31.001 35.8227 31.001 35.0876V33.3541C31.001 33.0305 30.7388 32.7681 30.4151 32.7681C30.0914 32.7681 29.8291 33.0305 29.8291 33.3541V35.0876C29.8291 35.1765 29.7568 35.2488 29.668 35.2488H10.332C10.2431 35.2488 10.1708 35.1765 10.1708 35.0876V7.35727C10.1708 7.26836 10.2431 7.19602 10.332 7.19602H29.668C29.7569 7.19602 29.8291 7.26836 29.8291 7.35727V30.5416C29.8291 30.8652 30.0914 31.1276 30.4151 31.1276C30.7388 31.1276 31.001 30.8652 31.001 30.5416V7.35727C31.001 6.62219 30.4031 6.02414 29.668 6.02414H26.2959V4.09398H32.0621C32.7191 4.09398 33.2538 4.62852 33.2538 5.28562V37.6365C33.2538 38.2936 32.7191 38.8281 32.0621 38.8281H7.9379C7.28087 38.8281 6.74634 38.2936 6.74634 37.6365V9.67477C6.74634 9.35117 6.48407 9.08883 6.1604 9.08883C5.83673 9.08883 5.57446 9.35117 5.57446 9.67477V37.6365C5.57446 38.9398 6.6347 40 7.9379 40H32.062C33.3653 40 34.4256 38.9398 34.4256 37.6365V5.28562C34.4256 3.98242 33.3653 2.92211 32.062 2.92211V2.92211ZM14.876 6.02406V3.32805H15.6724C16.306 3.32805 16.8216 2.8125 16.8216 2.17891V1.54445C16.8216 1.33898 16.9888 1.17188 17.1942 1.17188H22.8059C23.0113 1.17188 23.1784 1.33898 23.1784 1.54445V2.17891C23.1784 2.8125 23.694 3.32805 24.3276 3.32805H25.1241V6.02406H14.876Z" fill="#FC573B" fill-opacity="0.91"/>
<path d="M16.7478 11.0157C16.7478 10.3565 16.2115 9.82007 15.5522 9.82007H13.7772C13.1179 9.82007 12.5815 10.3564 12.5815 11.0157V12.7907C12.5815 13.4499 13.1179 13.9863 13.7772 13.9863H15.5522C16.2114 13.9863 16.7478 13.45 16.7478 12.7907V11.0157ZM15.5759 12.7907C15.5759 12.8037 15.5652 12.8144 15.5522 12.8144H13.7772C13.7641 12.8144 13.7534 12.8038 13.7534 12.7907V11.0157C13.7534 11.0026 13.7641 10.9919 13.7772 10.9919H15.5522C15.5652 10.9919 15.5759 11.0026 15.5759 11.0157V12.7907Z" fill="#FC573B" fill-opacity="0.91"/>
<path d="M27.651 9.82031H18.8496C18.5259 9.82031 18.2637 10.0827 18.2637 10.4063C18.2637 10.7298 18.5259 10.9922 18.8496 10.9922H27.651C27.9747 10.9922 28.237 10.7298 28.237 10.4063C28.237 10.0827 27.9747 9.82031 27.651 9.82031V9.82031Z" fill="#FC573B" fill-opacity="0.91"/>
<path d="M18.8496 13.4814H22.1055C22.4291 13.4814 22.6914 13.2191 22.6914 12.8955C22.6914 12.5719 22.4291 12.3096 22.1055 12.3096H18.8496C18.5259 12.3096 18.2637 12.5719 18.2637 12.8955C18.2637 13.2191 18.5259 13.4814 18.8496 13.4814Z" fill="#FC573B" fill-opacity="0.91"/>
<path d="M16.7478 17.2286C16.7478 16.5694 16.2115 16.033 15.5522 16.033H13.7772C13.1179 16.033 12.5815 16.5693 12.5815 17.2286V19.0036C12.5815 19.6628 13.1179 20.1992 13.7772 20.1992H15.5522C16.2114 20.1992 16.7478 19.6629 16.7478 19.0036V17.2286ZM15.5759 19.0036C15.5759 19.0166 15.5652 19.0273 15.5522 19.0273H13.7772C13.7641 19.0273 13.7534 19.0167 13.7534 19.0036V17.2286C13.7534 17.2155 13.7641 17.2048 13.7772 17.2048H15.5522C15.5652 17.2048 15.5759 17.2155 15.5759 17.2286V19.0036Z" fill="#FC573B" fill-opacity="0.91"/>
<path d="M27.651 16.033H18.8496C18.5259 16.033 18.2637 16.2953 18.2637 16.6189C18.2637 16.9425 18.5259 17.2048 18.8496 17.2048H27.651C27.9747 17.2048 28.237 16.9425 28.237 16.6189C28.237 16.2953 27.9747 16.033 27.651 16.033Z" fill="#FC573B" fill-opacity="0.91"/>
<path d="M18.8496 19.6943H22.1055C22.4291 19.6943 22.6914 19.432 22.6914 19.1084C22.6914 18.7848 22.4291 18.5225 22.1055 18.5225H18.8496C18.5259 18.5225 18.2637 18.7848 18.2637 19.1084C18.2637 19.432 18.5259 19.6943 18.8496 19.6943Z" fill="#FC573B" fill-opacity="0.91"/>
<path d="M16.7478 23.4412C16.7478 22.782 16.2115 22.2456 15.5522 22.2456H13.7772C13.1179 22.2456 12.5815 22.7819 12.5815 23.4412V25.2162C12.5815 25.8755 13.1179 26.4119 13.7772 26.4119H15.5522C16.2114 26.4119 16.7478 25.8755 16.7478 25.2162V23.4412ZM15.5759 25.2162C15.5759 25.2293 15.5652 25.24 15.5522 25.24H13.7772C13.7641 25.24 13.7534 25.2294 13.7534 25.2162V23.4412C13.7534 23.4282 13.7641 23.4175 13.7772 23.4175H15.5522C15.5652 23.4175 15.5759 23.4281 15.5759 23.4412V25.2162Z" fill="#FC573B" fill-opacity="0.91"/>
<path d="M27.651 22.2458H18.8496C18.5259 22.2458 18.2637 22.5082 18.2637 22.8318C18.2637 23.1554 18.5259 23.4177 18.8496 23.4177H27.651C27.9747 23.4177 28.237 23.1554 28.237 22.8318C28.237 22.5082 27.9747 22.2458 27.651 22.2458Z" fill="#FC573B" fill-opacity="0.91"/>
<path d="M18.8496 25.9072H22.1055C22.4291 25.9072 22.6914 25.6449 22.6914 25.3213C22.6914 24.9977 22.4291 24.7354 22.1055 24.7354H18.8496C18.5259 24.7354 18.2637 24.9977 18.2637 25.3213C18.2637 25.6449 18.5259 25.9072 18.8496 25.9072Z" fill="#FC573B" fill-opacity="0.91"/>
<path d="M15.5522 28.4585H13.7772C13.1179 28.4585 12.5815 28.9948 12.5815 29.6541V31.4291C12.5815 32.0883 13.1179 32.6247 13.7772 32.6247H15.5522C16.2114 32.6247 16.7478 32.0884 16.7478 31.4291V29.6541C16.7478 28.9948 16.2114 28.4585 15.5522 28.4585ZM15.5759 31.429C15.5759 31.4421 15.5652 31.4528 15.5522 31.4528H13.7772C13.7641 31.4528 13.7534 31.4422 13.7534 31.429V29.654C13.7534 29.641 13.7641 29.6303 13.7772 29.6303H15.5522C15.5652 29.6303 15.5759 29.6409 15.5759 29.654V31.429Z" fill="#FC573B" fill-opacity="0.91"/>
<path d="M28.237 29.0444C28.237 28.7208 27.9747 28.4585 27.651 28.4585H18.8496C18.5259 28.4585 18.2637 28.7208 18.2637 29.0444C18.2637 29.368 18.5259 29.6304 18.8496 29.6304H27.651C27.9747 29.6304 28.237 29.368 28.237 29.0444Z" fill="#FC573B" fill-opacity="0.91"/>
<path d="M18.8496 30.948C18.5259 30.948 18.2637 31.2103 18.2637 31.5339C18.2637 31.8575 18.5259 32.1199 18.8496 32.1199H22.1055C22.4291 32.1199 22.6914 31.8575 22.6914 31.5339C22.6914 31.2103 22.4291 30.948 22.1055 30.948H18.8496Z" fill="#FC573B" fill-opacity="0.91"/>
</svg>
