<svg width="40" height="40" viewBox="0 0 40 40" fill="none" xmlns="http://www.w3.org/2000/svg">
<g clip-path="url(#clip0_3703_739)">
<path d="M20.0459 40.0002C18.7003 39.9963 17.4107 39.4609 16.4584 38.5109L1.53243 23.5846C-0.445707 21.6064 -0.445707 18.3989 1.53243 16.4208L16.4584 1.4836C18.4369 -0.494535 21.6441 -0.494535 23.6226 1.4836L38.5594 16.4096C40.5375 18.3881 40.5375 21.5956 38.5594 23.5737L23.6334 38.5109C22.6808 39.4609 21.3912 39.9963 20.0459 40.0002ZM20.0459 1.73362C19.1612 1.73553 18.313 2.08714 17.6869 2.71202L2.76085 17.6384C2.13597 18.2623 1.78499 19.1088 1.78499 19.9917C1.78499 20.8748 2.13597 21.7214 2.76085 22.3453L17.6869 37.2822C18.3108 37.907 19.1576 38.258 20.0405 38.258C20.9234 38.258 21.7702 37.907 22.3941 37.2822L37.331 22.3561C37.9555 21.7322 38.3065 20.8857 38.3065 20.0028C38.3065 19.1197 37.9555 18.2731 37.331 17.6492L22.405 2.71202C21.7788 2.08714 20.9307 1.73553 20.0459 1.73362V1.73362Z" fill="#FC573B"/>
<path d="M20.0458 14.779C17.6441 14.779 15.6975 12.8323 15.6975 10.4306C15.6975 8.0292 17.6441 6.08228 20.0458 6.08228C22.4473 6.08228 24.3942 8.0292 24.3942 10.4306C24.3942 12.8323 22.4473 14.779 20.0458 14.779V14.779ZM20.0458 7.82155C18.605 7.82155 17.4368 8.98977 17.4368 10.4306C17.4368 11.8715 18.605 13.0397 20.0458 13.0397C21.4867 13.0397 22.6549 11.8715 22.6549 10.4306C22.6549 8.98977 21.4867 7.82155 20.0458 7.82155Z" fill="#FC573B"/>
<path d="M20.0458 32.1728C17.6441 32.1728 15.6975 30.2259 15.6975 27.8242C15.6975 25.4228 17.6441 23.4758 20.0458 23.4758C22.4473 23.4758 24.3942 25.4228 24.3942 27.8242C24.3942 30.2259 22.4473 32.1728 20.0458 32.1728V32.1728ZM20.0458 25.2151C18.605 25.2151 17.4368 26.3833 17.4368 27.8242C17.4368 29.2653 18.605 30.4332 20.0458 30.4332C21.4867 30.4332 22.6549 29.2653 22.6549 27.8242C22.6549 26.3833 21.4867 25.2151 20.0458 25.2151Z" fill="#FC573B"/>
<path d="M28.7429 23.476C26.3412 23.476 24.3943 21.5291 24.3943 19.1277C24.3943 16.726 26.3412 14.7791 28.7429 14.7791C31.1444 14.7791 33.0913 16.726 33.0913 19.1277C33.0913 21.5291 31.1444 23.476 28.7429 23.476V23.476ZM28.7429 16.5186C27.3018 16.5186 26.1339 17.6865 26.1339 19.1277C26.1339 20.5686 27.3018 21.7368 28.7429 21.7368C30.1838 21.7368 31.352 20.5686 31.352 19.1277C31.352 17.6865 30.1838 16.5186 28.7429 16.5186V16.5186Z" fill="#FC573B"/>
<path d="M13.7827 5.38887L15.0127 4.15918L18.2059 7.35236L16.9759 8.58205L13.7827 5.38887Z" fill="#FC573B"/>
<path d="M21.8853 13.5003L23.1153 12.2703L26.8929 16.0479L25.6629 17.2779L21.8853 13.5003Z" fill="#FC573B"/>
<path d="M19.176 13.9094H20.9156V24.3457H19.176V13.9094Z" fill="#FC573B"/>
</g>
<defs>
<clipPath id="clip0_3703_739">
<rect width="40" height="40" fill="white"/>
</clipPath>
</defs>
</svg>
