<svg width="40" height="40" viewBox="0 0 40 40" fill="none" xmlns="http://www.w3.org/2000/svg">
<path d="M0.833252 4.16675L5.83325 7.50008V24.1667L0.833252 20.8334V4.16675Z" fill="#29B6F6"/>
<path d="M39.1667 16.6667L34.1667 20.0001V30.8334L39.1667 27.5001V16.6667Z" fill="#0288D1"/>
<path d="M39.1667 5L34.1667 8.33333V14.1667L39.1667 10.8333V5Z" fill="#0288D1"/>
<path d="M29.1667 4.16675L24.1667 7.50008V24.1667L29.1667 20.8334V4.16675Z" fill="#0288D1"/>
<path d="M0.833252 10.0001L14.9999 19.1667V13.3334L0.833252 4.16675V10.0001Z" fill="#29B6F6"/>
<path d="M29.1667 10.0001L15 19.1667V13.3334L29.1667 4.16675V10.0001Z" fill="#0288D1"/>
<path d="M29.1667 21.6666L15 30.8333V24.9999L29.1667 15.8333V21.6666Z" fill="#0288D1"/>
<path d="M39.1667 28.3333L25 37.5V31.6667L39.1667 22.5V28.3333Z" fill="#0288D1"/>
<path d="M25 31.4708L15 25V30.8333L25 37.3042V31.4708Z" fill="#29B6F6"/>
</svg>
