<svg width="40" height="40" viewBox="0 0 40 40" fill="none" xmlns="http://www.w3.org/2000/svg">
<g clip-path="url(#clip0_3701_693)">
<path d="M19.9987 16.6667C17.9169 16.6667 16.229 18.1593 16.229 20.0001C16.229 21.8409 17.9169 23.3334 19.9987 23.3334C22.0809 23.3334 23.7684 21.8409 23.7684 20.0001C23.7662 18.1599 22.0798 16.669 19.9987 16.6667ZM19.9987 22.0001C18.7496 22.0001 17.7369 21.1046 17.7369 20.0001C17.7369 18.8956 18.7496 18.0001 19.9987 18.0001C21.2482 18.0001 22.2605 18.8956 22.2605 20.0001C22.2605 21.1046 21.2482 22.0001 19.9987 22.0001Z" fill="#3178C6"/>
<path d="M33.1176 20C34.2507 19.153 35.3275 18.2487 36.3429 17.292C39.5674 14.208 40.6902 11.6859 39.5895 10C38.0061 7.57813 32.6876 8.02734 26.5611 9.9528C25.3812 4.29883 23.161 0 19.9987 0C16.8368 0 14.6166 4.29883 13.4396 9.95345C7.31313 8.028 1.99245 7.57878 0.411309 10C-0.689417 11.6859 0.433398 14.208 3.6579 17.292C4.67249 18.2487 5.74818 19.1527 6.8802 20C5.74707 20.847 4.67028 21.7513 3.65496 22.708C0.432661 25.792 -0.690154 28.3141 0.410573 30C1.16452 31.1559 2.77143 31.6579 4.91104 31.6579C7.83367 31.5313 10.714 30.987 13.4396 30.0459C14.6166 35.7012 16.8368 40 19.9987 40C23.161 40 25.3812 35.7012 26.5582 30.0466C29.2839 30.987 32.1638 31.5313 35.0861 31.6579C37.2249 31.6579 38.8315 31.1553 39.5865 30C40.6872 28.3141 39.5644 25.792 36.3399 22.708C35.3253 21.7513 34.2496 20.8473 33.1176 20V20ZM38.2837 10.6667C38.9894 11.748 37.85 13.8867 35.2363 16.3867C34.2011 17.3607 33.1011 18.2786 31.9414 19.1361C30.5495 18.1462 29.0335 17.1647 27.4064 16.2139C27.2882 14.526 27.0898 12.8633 26.8151 11.2806C32.8912 9.35189 37.3214 9.19987 38.2811 10.6667H38.2837ZM23.0145 24.6188C21.9922 25.1396 20.9872 25.6243 19.9987 26.0732C19.0118 25.6253 18.0064 25.1403 16.983 24.6188C15.9735 24.1032 14.9994 23.5693 14.0504 23.028C13.9952 22.0508 13.9672 21.0413 13.9672 20C13.9672 18.9587 13.9952 17.9492 14.0504 16.972C14.9994 16.4307 15.9735 15.8968 16.983 15.3812C18.0045 14.86 19.0099 14.3753 19.9987 13.9274C20.9864 14.3766 21.9937 14.8607 23.0145 15.3812C24.0243 15.8968 24.9984 16.4307 25.9474 16.972C26.0027 17.9492 26.0303 18.9587 26.0303 20C26.0303 21.0413 26.0027 22.0508 25.9474 23.028C24.9984 23.5693 24.0243 24.1032 23.0145 24.6188ZM25.8293 24.6781C25.7192 25.932 25.5668 27.1221 25.3768 28.2399C24.187 27.8245 22.9446 27.346 21.6605 26.8027C22.3692 26.4694 23.0734 26.1273 23.7662 25.7741C24.4591 25.4206 25.1552 25.0495 25.8293 24.6781V24.6781ZM18.3351 26.8001C17.0533 27.3428 15.8086 27.8219 14.6188 28.2373C14.431 27.1195 14.2786 25.9294 14.1663 24.6755C14.8404 25.0466 15.5273 25.4118 16.2268 25.7715C16.9222 26.1273 17.6261 26.4668 18.3351 26.8001ZM12.5024 22.1152C11.3549 21.4206 10.2715 20.7155 9.25136 20C10.2689 19.2858 11.3523 18.5798 12.5024 17.8822C12.4751 18.5885 12.4593 19.2959 12.4593 20C12.4593 20.7041 12.4751 21.4115 12.5024 22.1178V22.1152ZM14.1686 15.3193C14.2786 14.0661 14.431 12.8766 14.621 11.7594C15.8093 12.1742 17.0503 12.6533 18.3325 13.1953C17.625 13.5277 16.9244 13.8704 16.2316 14.2233C15.5288 14.5833 14.8411 14.9495 14.1686 15.3219V15.3193ZM21.6645 13.1999C22.946 12.6572 24.19 12.1787 25.379 11.7633C25.5668 12.8812 25.7192 14.0713 25.8315 15.3252C25.1559 14.9515 24.4683 14.585 23.7684 14.2259C23.0763 13.8727 22.3732 13.5332 21.6645 13.1999ZM27.4955 17.8854C28.6429 18.5794 29.7264 19.2845 30.7465 20C29.7289 20.7139 28.6455 21.4199 27.4955 22.1178C27.5223 21.4115 27.5382 20.7041 27.5382 20C27.5382 19.2959 27.5223 18.5885 27.4955 17.8822V17.8854ZM19.9987 1.33333C21.9178 1.33333 23.9827 4.80469 25.1294 10.4232C23.4423 11.0039 21.7135 11.6839 20.0028 12.4382C18.2884 11.6839 16.5585 11.0039 14.8757 10.4232C16.0151 4.80534 18.08 1.33333 19.9987 1.33333V1.33333ZM4.76415 16.3867C2.15002 13.8867 1.011 11.748 1.71672 10.6667C2.14265 10.0146 3.25074 9.68197 4.88306 9.68197C7.72986 9.81445 10.5336 10.3548 13.1849 11.2819C12.9103 12.862 12.7122 14.5241 12.5937 16.2113C10.9665 17.1621 9.45052 18.1445 8.0586 19.1335C6.89934 18.277 5.79898 17.3597 4.76415 16.3867ZM1.71672 29.3333C1.011 28.252 2.15002 26.1133 4.76415 23.6133C5.79898 22.6393 6.89897 21.7214 8.0586 20.8639C9.45052 21.8538 10.9665 22.8353 12.5937 23.7861C12.7122 25.474 12.9103 27.1367 13.1849 28.7194C7.1066 30.6481 2.67645 30.8001 1.71672 29.3333V29.3333ZM19.9987 38.6667C18.08 38.6667 16.0159 35.1953 14.8721 29.5775C16.5585 28.9967 18.2884 28.3167 20.0028 27.5628C21.7172 28.3167 23.4467 28.9967 25.1331 29.5775C23.982 35.1953 21.9178 38.6667 19.9987 38.6667V38.6667ZM38.2811 29.3333C37.3221 30.8001 32.889 30.6481 26.8129 28.7174C27.0876 27.1367 27.2856 25.474 27.4042 23.7839C29.0313 22.8333 30.5473 21.8506 31.9392 20.862C33.0989 21.7191 34.1988 22.6374 35.2337 23.6113C37.8478 26.1133 38.9868 28.252 38.2811 29.3333V29.3333Z" fill="#3178C6"/>
</g>
<defs>
<clipPath id="clip0_3701_693">
<rect width="40" height="40" fill="white"/>
</clipPath>
</defs>
</svg>
