<svg width="40" height="40" viewBox="0 0 40 40" fill="none" xmlns="http://www.w3.org/2000/svg">
<g clip-path="url(#clip0_3704_748)">
<path d="M27.7158 27.8244C29.1919 27.664 30.3117 26.3291 30.2608 24.7269C30.21 23.1249 28.9373 21.8432 27.4103 21.8432H27.3086C25.7305 21.8966 24.5089 23.285 24.5598 24.9405C24.6108 25.7416 24.9161 26.4358 25.3742 26.9164C23.6436 30.4945 20.9967 33.1112 17.0264 35.3007C14.3286 36.7959 11.5291 37.33 8.72953 36.9563C6.4389 36.6358 4.65734 35.5678 3.53734 33.8054C1.90859 31.1887 1.75594 28.3583 3.13031 25.528C4.0975 23.4986 5.62437 22.0033 6.59156 21.2557C6.38797 20.5615 6.0825 19.3867 5.92984 18.5323C-1.45094 24.1396 -0.687346 31.7227 1.55234 35.3007C3.23203 37.9709 6.6425 39.6264 10.4092 39.6264C11.4272 39.6264 12.4452 39.5195 13.4633 39.2526C19.9787 37.9175 24.9162 33.8588 27.7158 27.8244V27.8244ZM36.6745 21.2024C32.8059 16.4495 27.105 13.8328 20.5895 13.8328H19.7752C19.317 12.8716 18.3498 12.2307 17.2809 12.2307H17.1791C15.6012 12.2841 14.3797 13.6725 14.4305 15.3281C14.4814 16.9301 15.7539 18.2118 17.2809 18.2118H17.3827C18.5025 18.1584 19.4697 17.4108 19.8769 16.3961H20.7931C24.6617 16.3961 28.3266 17.5709 31.6353 19.8673C34.1803 21.6296 36.0128 23.926 37.0308 26.7028C37.8961 28.9457 37.8452 31.1352 36.9289 33.0044C35.5037 35.8347 33.1114 37.3834 29.9555 37.3834C27.9194 37.3834 25.9852 36.7425 24.967 36.2619C24.4072 36.7959 23.3891 37.6503 22.6764 38.1845C24.8653 39.2525 27.105 39.84 29.2428 39.84C34.1294 39.84 37.7434 37.0095 39.1178 34.1793C40.5939 31.0818 40.492 25.7416 36.6745 21.2024V21.2024ZM10.8164 28.732C10.8673 30.3342 12.1398 31.6157 13.6669 31.6157H13.7687C15.3467 31.5624 16.5683 30.1738 16.5173 28.5184C16.4666 26.9162 15.1939 25.6347 13.6669 25.6347H13.5652C13.4633 25.6347 13.3105 25.6347 13.2089 25.688C11.1219 22.0566 10.2566 18.105 10.562 13.8327C10.7655 10.6285 11.7836 7.8515 13.5652 5.55513C15.0412 3.57922 17.8917 2.61798 19.8261 2.56471C25.2216 2.45783 27.512 9.50695 27.6648 12.3374C28.3266 12.4975 29.4464 12.8714 30.21 13.1385C29.5991 4.48734 24.5089 0.00146484 19.6225 0.00146484C15.0412 0.00146484 10.8164 3.47267 9.13656 8.59931C6.79515 15.4348 8.32218 22.0033 11.1727 27.1834C10.9183 27.5572 10.7655 28.1447 10.8164 28.7322V28.732Z" fill="#764ABC"/>
</g>
<defs>
<clipPath id="clip0_3704_748">
<rect width="40" height="40" fill="white"/>
</clipPath>
</defs>
</svg>
