<svg width="40" height="40" viewBox="0 0 40 40" fill="none" xmlns="http://www.w3.org/2000/svg">
<g clip-path="url(#clip0_3701_698)">
<path d="M3.90625 0H36.0938C38.2511 0 40 1.74891 40 3.90625V36.0938C40 38.2511 38.2511 40 36.0938 40H3.90625C1.74891 40 0 38.2511 0 36.0938V3.90625C0 1.74891 1.74891 0 3.90625 0Z" fill="#3178C6"/>
<path d="M3.90625 0H36.0938C38.2511 0 40 1.74891 40 3.90625V36.0938C40 38.2511 38.2511 40 36.0938 40H3.90625C1.74891 40 0 38.2511 0 36.0938V3.90625C0 1.74891 1.74891 0 3.90625 0Z" fill="#3178C6"/>
<path fill-rule="evenodd" clip-rule="evenodd" d="M24.7609 31.83V35.741C25.3966 36.067 26.1486 36.3113 27.0167 36.4743C27.8848 36.6373 28.7998 36.7188 29.7616 36.7188C31.4194 36.7188 33.2341 36.4816 34.6524 35.5638C36.0637 34.6504 36.7188 33.1309 36.7188 31.4878C36.7188 30.2662 36.3398 29.0906 35.4838 28.2002C34.2003 26.865 32.3966 26.3235 30.7764 25.5297C29.9648 25.132 28.8446 24.5147 28.8446 23.4702C28.8446 23.2014 28.9139 22.9591 29.0525 22.7431C29.6097 21.8749 30.8473 21.6981 31.7913 21.6981C32.863 21.6981 33.9936 21.938 34.9887 22.3825C35.3351 22.5373 35.655 22.7166 35.9484 22.9203V19.2659C35.3534 19.0378 34.7034 18.8687 33.9983 18.7587C33.2932 18.6487 32.4841 18.5938 31.5712 18.5938C30.642 18.5938 29.7616 18.6936 28.9302 18.8932C28.0988 19.0928 27.3673 19.4045 26.7355 19.8281C26.1037 20.2519 25.6045 20.7916 25.2377 21.4476C24.8709 22.1034 24.6875 22.8877 24.6875 23.8002C24.6875 24.9654 25.0237 25.9595 25.6962 26.7824C26.3687 27.6053 27.3896 28.302 28.7591 28.8723C29.6803 29.2491 30.6382 29.6209 31.4673 30.1801C32.0419 30.5676 32.5616 31.108 32.5616 31.8422C32.5616 32.3751 32.2603 32.8269 31.8219 33.1072C31.1732 33.5219 30.3425 33.6144 29.5904 33.6144C28.7427 33.6144 27.9031 33.4657 27.0716 33.1683C26.2403 32.8709 25.47 32.4248 24.7609 31.83V31.83ZM18.1859 22.1939H23.2031V18.9844H9.21875V22.1939H14.2114V36.4844H18.1859V22.1939Z" fill="white"/>
</g>
<defs>
<clipPath id="clip0_3701_698">
<rect width="40" height="40" fill="white"/>
</clipPath>
</defs>
</svg>
